<svg width="100" height="100" viewBox="0 0 100 100" fill="none" xmlns="http://www.w3.org/2000/svg">
<path d="M51.9231 14.8804L37.9128 19.5505L28.5617 7.86169C28.1172 7.30598 27.4108 7.02837 26.7068 7.13269C26.0029 7.23701 25.4073 7.70755 25.143 8.3683L20.6298 19.6514L6.88435 17.3605C6.098 17.2295 5.30891 17.5779 4.87605 18.2474C4.4432 18.9168 4.44925 19.7794 4.89145 20.4427L14.0966 34.2504L2.75061 43.3271C2.08736 43.8577 1.83159 44.7494 2.11274 45.5509C2.39389 46.3524 3.15062 46.8889 4 46.8889H16.5585L12.3249 59.5897C12.0691 60.3572 12.3007 61.2031 12.9118 61.7331C13.5229 62.2631 14.3931 62.3728 15.1166 62.011L29.28 54.9294L43.6085 66.8697C44.2394 67.3955 45.1275 67.4821 45.8481 67.0883C46.5687 66.6944 46.9753 65.9001 46.8734 65.0852L44.556 46.546L57.9955 44.3061C58.7739 44.1764 59.4032 43.6011 59.6021 42.8374C59.801 42.0737 59.5323 41.2645 58.9161 40.7716L47.4008 31.5594L54.3444 17.6722C54.7062 16.9487 54.5965 16.0785 54.0665 15.4673C53.5365 14.8562 52.6905 14.6246 51.9231 14.8804Z" fill="#FFAC33" stroke="#222222" stroke-width="4" stroke-linejoin="round"/>
<path d="M2 34.6646C2 34.6657 2 34.6667 4 34.6667H2V80.6667C2 83.5722 2.73213 85.8843 3.93312 87.6858C5.12577 89.4748 6.70165 90.6425 8.21668 91.4C9.72389 92.1536 11.2069 92.5204 12.2962 92.702C12.8456 92.7935 13.3078 92.8401 13.6405 92.8639C13.8072 92.8758 13.9423 92.882 14.0408 92.8853C14.0901 92.8869 14.1302 92.8878 14.1606 92.8883L14.1989 92.8888L14.2125 92.8889L14.2178 92.8889L14.2201 92.8889C14.2212 92.8889 14.2222 92.8889 14.2222 90.8889V92.8889H85.7778C88.6833 92.8889 90.9954 92.1568 92.7969 90.9558C94.5859 89.7631 95.7536 88.1873 96.5111 86.6722C97.2647 85.165 97.6315 83.682 97.8131 82.5927C97.9046 82.0433 97.9512 81.5811 97.975 81.2484C97.9869 81.0817 97.9931 80.9466 97.9964 80.8481C97.998 80.7989 97.9989 80.7587 97.9994 80.7283L97.9999 80.69L98 80.6764L98 80.6711L98 80.6688C98 80.6677 98 80.6667 96 80.6667H98V34.6667C98 31.7612 97.2679 29.449 96.0669 27.6476C94.8742 25.8586 93.2984 24.6909 91.7833 23.9334C90.2761 23.1798 88.7931 22.8129 87.7038 22.6314C87.1544 22.5398 86.6922 22.4933 86.3595 22.4695C86.1928 22.4576 86.0577 22.4513 85.9592 22.4481C85.91 22.4464 85.8698 22.4455 85.8394 22.445L85.8011 22.4446L85.7875 22.4445L85.7822 22.4445L85.7799 22.4445C85.7788 22.4445 85.7778 22.4445 85.7778 24.4445V22.4445H14.2222C11.3167 22.4445 9.00459 23.1766 7.2031 24.3776C5.41413 25.5702 4.24644 27.1461 3.48892 28.6611C2.73532 30.1683 2.36849 31.6513 2.18693 32.7407C2.09537 33.2901 2.04881 33.7523 2.02505 34.085C2.01314 34.2516 2.00689 34.3868 2.00361 34.4853C2.00196 34.5345 2.00106 34.5747 2.00057 34.6051L2.0001 34.6434L2.00002 34.6569L2 34.6623L2 34.6646Z" fill="#31373D" stroke="#222222" stroke-width="4" stroke-linejoin="round"/>
<path d="M57.6666 83.2222C71.7806 83.2222 83.2222 71.7806 83.2222 57.6666C83.2222 43.5527 71.7806 32.1111 57.6666 32.1111C43.5527 32.1111 32.1111 43.5527 32.1111 57.6666C32.1111 71.7806 43.5527 83.2222 57.6666 83.2222Z" fill="#CCD6DD"/>
<path d="M57.6666 78.1111C68.9578 78.1111 78.1111 68.9578 78.1111 57.6666C78.1111 46.3755 68.9578 37.2222 57.6666 37.2222C46.3755 37.2222 37.2222 46.3755 37.2222 57.6666C37.2222 68.9578 46.3755 78.1111 57.6666 78.1111Z" fill="#31373D"/>
<path d="M57.6667 70.4445C64.7237 70.4445 70.4445 64.7237 70.4445 57.6667C70.4445 50.6097 64.7237 44.8889 57.6667 44.8889C50.6097 44.8889 44.8889 50.6097 44.8889 57.6667C44.8889 64.7237 50.6097 70.4445 57.6667 70.4445Z" fill="#3B88C3"/>
<path d="M87.0555 37.2222C89.1726 37.2222 90.8888 35.506 90.8888 33.3889C90.8888 31.2718 89.1726 29.5555 87.0555 29.5555C84.9384 29.5555 83.2222 31.2718 83.2222 33.3889C83.2222 35.506 84.9384 37.2222 87.0555 37.2222Z" fill="white"/>
<path d="M44.8889 32.1111L52.5556 16.7778L37.2222 21.8889L27 9.11108L21.8889 21.8889L6.55556 19.3333L16.7778 34.6666L4 44.8889H19.3333L14.2222 60.2222L29.5556 52.5555L44.8889 65.3333L42.3333 44.8889L57.6667 42.3333L44.8889 32.1111Z" fill="#FFAC33"/>
<path d="M29.5556 44.8888L21.8889 49.9999L24.4445 42.3333L16.7778 39.7777L24.4445 34.6666L16.7778 26.9999H27.0001L29.5556 19.3333L34.6667 26.9999L42.3334 24.4444L37.2223 32.111L44.8889 39.7777L37.2223 42.3333L39.7778 52.5555L29.5556 44.8888Z" fill="white"/>
</svg>
