<svg width="100" height="100" viewBox="0 0 100 100" fill="none" xmlns="http://www.w3.org/2000/svg">
<path d="M47.792 8.7537L47.7919 8.75369L47.4189 10.7186C47.7919 8.75369 47.7917 8.75365 47.7914 8.75358L47.7899 8.7533L47.7842 8.75222L47.7617 8.74796L47.6737 8.73131L47.3316 8.66675C47.032 8.61036 46.5929 8.52792 46.0336 8.42359C44.9151 8.21495 43.3158 7.91872 41.3913 7.56815C37.5432 6.86717 32.391 5.94819 27.1812 5.07746C21.9771 4.20768 16.6921 3.38211 12.587 2.87107C10.5404 2.6163 8.74763 2.43462 7.39077 2.36839C6.71875 2.33559 6.09841 2.32807 5.58507 2.36547C5.33084 2.384 5.04766 2.41717 4.77232 2.48342C4.55559 2.53557 4.07029 2.66776 3.64016 3.04732L3.64016 3.04732L3.63785 3.04935C3.20809 3.42977 3.0173 3.89543 2.93896 4.10417C2.83943 4.36938 2.7718 4.64641 2.72227 4.89647C2.62225 5.40138 2.55374 6.01798 2.504 6.68895C2.40358 8.0437 2.36438 9.84528 2.36667 11.9077C2.37127 16.0445 2.54365 21.3909 2.76981 26.6625C2.99622 31.9399 3.27759 37.166 3.50224 41.0712C3.61459 43.0242 3.71281 44.6478 3.78297 45.7835C3.81805 46.3513 3.84611 46.7973 3.86542 47.1015L3.8876 47.449L3.89336 47.5384L3.89484 47.5612L3.89494 47.5626C3.89501 47.5638 3.89509 47.565 3.89517 47.5662C3.91849 47.9387 4.01474 48.6569 4.56864 49.2779C5.3964 50.2098 6.54831 50.2617 7.22574 50.2021C7.96906 50.1367 8.76472 49.8917 9.53751 49.5822C11.107 48.9537 13.0654 47.8592 15.2513 46.4453C19.6496 43.6003 25.2725 39.2626 31.1001 34.1104L31.1001 34.1104C36.9291 28.9568 41.9228 23.9067 45.2849 19.8892C46.9558 17.8925 48.2817 16.0825 49.0977 14.6014C49.4995 13.8721 49.84 13.1125 49.996 12.3828C50.1382 11.7177 50.2282 10.5681 49.4052 9.63196C48.8597 9.01036 48.1603 8.82363 47.792 8.7537Z" fill="#DD2E44" stroke="#222222" stroke-width="4" stroke-linejoin="round"/>
<path d="M94.5887 72.7881L94.589 72.7878C98.8804 68.8401 99.1595 62.1145 95.2166 57.8216C95.2165 57.8216 95.2165 57.8216 95.2165 57.8215L94.8716 57.4459L94.8704 57.4447C90.9238 53.1545 84.195 52.8703 79.9033 56.818C79.9032 56.8181 79.9031 56.8182 79.903 56.8183L73.2027 62.9795C72.8122 63.3385 72.5804 63.8379 72.5582 64.3679C72.5359 64.8979 72.7252 65.415 73.0842 65.8054L85.0621 78.8311C85.8098 79.6441 87.075 79.6972 87.888 78.9495L94.5887 72.7881Z" fill="#3B88C3" stroke="#222222" stroke-width="4" stroke-linejoin="round"/>
<path d="M47.4444 98C72.5427 98 92.8889 77.6538 92.8889 52.5555C92.8889 27.4573 72.5427 7.11108 47.4444 7.11108C22.3462 7.11108 2 27.4573 2 52.5555C2 77.6538 22.3462 98 47.4444 98Z" fill="#FFCC4D" stroke="#222222" stroke-width="4" stroke-linejoin="round"/>
<path d="M49.9975 76.8333C52.8203 76.8333 55.1086 73.9729 55.1086 70.4444C55.1086 66.9159 52.8203 64.0555 49.9975 64.0555C47.1747 64.0555 44.8864 66.9159 44.8864 70.4444C44.8864 73.9729 47.1747 76.8333 49.9975 76.8333Z" fill="#664500"/>
<path d="M24.7281 58.6454C24.2629 58.6454 23.7902 58.5176 23.3685 58.2519C22.1751 57.5005 21.8173 55.9237 22.5686 54.7277C24.9095 51.0145 32.0267 44.664 42.2208 47.1582C43.5906 47.493 44.4288 48.8781 44.0941 50.2479C43.7567 51.6176 42.3665 52.4507 41.0044 52.1211C31.7942 49.8671 26.9437 57.3753 26.8952 57.452C26.4071 58.2237 25.5765 58.6454 24.7281 58.6454ZM55.3257 49.0825C54.5846 49.0825 53.8537 48.7631 53.3477 48.1472C52.4533 47.056 52.6117 45.4434 53.7055 44.549C61.822 37.8943 70.9862 40.5572 74.6994 42.8981C75.8928 43.6494 76.2506 45.2287 75.4967 46.4222C74.7479 47.6105 73.1763 47.9734 71.9803 47.2272C71.6276 47.0125 64.1807 42.5684 56.9434 48.5024C56.4681 48.8934 55.8956 49.0825 55.3257 49.0825Z" fill="#664500"/>
<path d="M38.1065 83.9199C37.9327 83.9199 37.7564 83.8969 37.5826 83.8484C36.5655 83.5596 35.9726 82.5016 36.2614 81.4819C37.3781 77.5464 36.9207 73.7411 35.0091 71.0399C33.739 69.2459 31.9297 68.1496 30.0437 68.0295C28.9857 67.9656 28.1833 67.0532 28.2497 65.9978C28.3161 64.9424 29.2234 64.0786 30.2814 64.2064C33.3301 64.3955 36.1924 66.0796 38.1346 68.8242C40.7183 72.4761 41.3801 77.4697 39.9465 82.5246C39.7088 83.3705 38.9396 83.9199 38.1065 83.9199ZM66.3121 76.0974C65.9492 76.0974 65.5838 75.9951 65.2593 75.7805C62.2769 73.8127 60.6081 70.3704 60.6797 66.3377C60.7538 62.1594 62.7471 58.28 65.7499 56.4502C66.652 55.8982 67.8301 56.1845 68.3821 57.0917C68.9341 57.9964 68.6479 59.1719 67.7407 59.7239C65.8624 60.8688 64.5616 63.5547 64.5105 66.4041C64.4594 69.1002 65.5046 71.3517 67.3676 72.5809C68.2518 73.1636 68.4946 74.3519 67.9119 75.2361C67.5439 75.7958 66.9357 76.0974 66.3121 76.0974Z" fill="#E2A62D"/>
<path d="M47.9019 10.9512C47.792 10.8259 47.6208 10.7569 47.4189 10.7186C47.4189 10.7186 6.72425 2.99315 4.96347 4.54693C3.20525 6.10326 5.89114 47.4394 5.89114 47.4394C5.90392 47.6464 5.94992 47.8227 6.06236 47.9479C7.60592 49.6959 18.2217 42.8266 29.7754 32.612C41.3316 22.3949 49.4455 12.6992 47.9019 10.9512Z" fill="#DD2E44"/>
<path d="M4.89191 4.69252C4.85358 4.76919 4.82036 4.87397 4.7948 5.00686C5.20113 8.51052 9.12647 37.3397 11.5721 46.3506C15.2419 44.2985 18.9705 41.5104 23.3507 38.0374C19.6298 31.2269 6.95936 4.37308 4.89191 4.69252Z" fill="#EA596E"/>
<path d="M80.4162 78.6964L53.3963 75.3665C50.5085 75.1058 45.4306 75.0803 45.6913 70.5058C45.929 66.3582 50.9046 66.997 54.5821 67.5414L81.7681 72.0749L80.4162 78.6964Z" fill="#3B88C3"/>
<path d="M81.7656 72.0774L70.976 70.2272C69.7136 69.9998 68.5891 71.8807 68.5329 73.8714C68.469 76.0846 69.113 77.2039 70.3882 77.4646L80.9784 78.773L81.7656 72.0774Z" fill="#88C9F9"/>
<path d="M93.235 71.3159L86.5343 77.4773L74.5564 64.4517L81.2571 58.2902C84.7352 55.0907 90.1989 55.3207 93.3985 58.7988L93.7435 59.1744C96.9405 62.6551 96.7131 68.1163 93.235 71.3159Z" fill="#3B88C3"/>
<path d="M86.5301 77.4808C89.408 74.8347 89.0601 69.7737 85.7529 66.1768C82.4457 62.5798 77.4316 61.8091 74.5537 64.4552C71.6757 67.1013 72.0237 72.1623 75.3309 75.7593C78.6381 79.3562 83.6521 80.127 86.5301 77.4808Z" fill="#88C9F9"/>
<path d="M84.1344 74.8753C85.5734 73.5522 85.1315 70.7303 83.1473 68.5723C81.1632 66.4144 78.3882 65.7376 76.9493 67.0607C75.5103 68.3837 75.9522 71.2057 77.9363 73.3636C79.9205 75.5216 82.6954 76.1984 84.1344 74.8753Z" fill="#226699"/>
<path d="M10.3889 95.4445C13.6105 95.4445 16.2222 92.8328 16.2222 89.6112C16.2222 86.3895 13.6105 83.7778 10.3889 83.7778C7.16721 83.7778 4.55554 86.3895 4.55554 89.6112C4.55554 92.8328 7.16721 95.4445 10.3889 95.4445Z" fill="#55ACEE" stroke="#222222" stroke-width="4" stroke-linejoin="round"/>
<path d="M78.1111 16.2222C82.0385 16.2222 85.2222 13.0385 85.2222 9.11111C85.2222 5.18375 82.0385 2 78.1111 2C74.1838 2 71 5.18375 71 9.11111C71 13.0385 74.1838 16.2222 78.1111 16.2222Z" fill="#55ACEE" stroke="#222222" stroke-width="4" stroke-linejoin="round"/>
<path d="M16.6221 80.7305C17.2539 80.6697 17.8192 80.3126 18.1456 79.7682C18.472 79.2239 18.5206 78.557 18.2767 77.9711L12.3018 63.6191C11.9833 62.8539 11.2258 62.3645 10.3974 62.3886C9.56891 62.4127 8.84113 62.9452 8.56754 63.7275L3.16509 79.1759C2.93993 79.8197 3.05842 80.5339 3.47942 81.0705C3.90042 81.6072 4.56588 81.8923 5.24481 81.8269L16.6221 80.7305ZM70.9296 18.718C71.6286 18.5433 72.1796 18.006 72.372 17.3116C72.5643 16.6172 72.3682 15.873 71.8587 15.3635L64.1921 7.69687C63.6826 7.18737 62.9384 6.99132 62.244 7.18365C61.5496 7.37599 61.0123 7.92698 60.8376 8.62601L58.282 18.8482C58.1116 19.5298 58.3113 20.2508 58.8081 20.7475C59.3049 21.2443 60.0258 21.444 60.7074 21.2736L70.9296 18.718Z" fill="#EA596E" stroke="#222222" stroke-width="4" stroke-linejoin="round"/>
<path d="M83.7953 36.9391C83.6676 37.8319 84.1532 38.6996 84.9809 39.0578C85.8085 39.4159 86.7735 39.1759 87.3369 38.4717L97.5616 25.6914C97.9119 25.2536 98.0623 24.6889 97.9762 24.1349C97.8901 23.5809 97.5755 23.0885 97.1089 22.7776L89.4423 17.669C88.8707 17.2882 88.1438 17.2272 87.5168 17.5076C86.8899 17.788 86.4506 18.3704 86.3534 19.0503L83.7953 36.9391Z" fill="#77B255" stroke="#222222" stroke-width="4" stroke-linejoin="round"/>
</svg>
