<svg width="100" height="102" viewBox="0 0 100 102" fill="none" xmlns="http://www.w3.org/2000/svg">
<path d="M62.1836 4.44938C62.0165 3.61071 61.3346 2.97112 60.4869 2.85793C59.6393 2.74474 58.8135 3.18299 58.4321 3.9484L49.4516 21.9724L38.639 11.1209C38.0675 10.5474 37.2067 10.375 36.4585 10.6841C35.7103 10.9932 35.2222 11.723 35.2222 12.5326V28.0417L12.06 23.3954C11.1963 23.2221 10.321 23.6344 9.90442 24.4106C9.48785 25.1868 9.62818 26.1441 10.25 26.7681L28.8139 45.3969L3.03984 59.5023C2.23831 59.941 1.83597 60.8671 2.06236 61.7523C2.28875 62.6375 3.08629 63.2568 4 63.2568H31.4356L17.5432 91.1388C17.1388 91.9506 17.3312 92.9329 18.012 93.5321C18.6928 94.1313 19.6916 94.1974 20.4454 93.6931L49.8097 74.0484L76.7632 98.6373C77.4053 99.2231 78.3523 99.3271 79.1063 98.8946C79.8602 98.4621 80.2485 97.5921 80.067 96.7421L72.9166 63.2568H96C96.8602 63.2568 97.6241 62.7067 97.8968 61.8908C98.1696 61.075 97.89 60.1761 97.2027 59.6588L78.489 45.5744L97.4971 24.1167C98.0785 23.4604 98.1646 22.5018 97.7094 21.7523C97.2542 21.0029 96.3639 20.6373 95.5134 20.8507L66.8842 28.0318L62.1836 4.44938Z" fill="#BB1A34" stroke="#222222" stroke-width="4" stroke-linejoin="round"/>
<path d="M62.5579 37.8684L67.3113 36.6749L80.6666 33.3246L72.0263 43.0766L68.6555 46.8844L72.7188 49.9382L80.1938 55.5656H65.0701L66.2788 61.2338L70.2425 79.7871L55.3053 66.1609L52.6066 63.6974L49.5706 65.729L36.1795 74.6888L42.3282 62.3506L45.7066 55.5656H28.4413L38.0476 50.3037L43.5293 47.3086L39.1158 42.8747L31.3367 35.0726L39.5682 36.7235L45.1546 37.8454V27.0379L48.8602 30.7562L53.4448 35.3537L56.3403 29.5372L59.5935 23.0052" fill="#FCAB40"/>
<path d="M58.9751 41.3874L60.9352 40.8941L66.4501 39.5116L62.8826 43.5391L61.4898 45.1108L63.1662 46.3707L66.2534 48.6937H60.0101L60.5085 51.0346L62.1466 58.6936L55.98 53.0688L54.8632 52.0517L53.611 52.8899L48.0834 56.5904L50.621 51.4946L52.0164 48.6937H44.8889L48.8577 46.5215L51.1194 45.2846L49.2972 43.4548L46.0849 40.2322L49.4813 40.9146L51.7889 41.3771V36.9177L53.3197 38.451L55.2108 40.3498L56.4068 37.9501L57.7485 35.2515" fill="#F5F8FA"/>
</svg>
