<svg width="100" height="100" viewBox="0 0 100 100" fill="none" xmlns="http://www.w3.org/2000/svg">
<path d="M92.6636 36.8152C92.34 35.9356 91.4489 35.3987 90.52 35.5237C89.5911 35.6486 88.8736 36.4019 88.7939 37.3357C88.2295 43.9473 86.2029 48.6616 83.682 51.2996C81.2553 53.8391 78.3756 54.5032 75.3863 53.2196C74.1822 52.7023 73.4975 51.855 73.1022 50.6698C72.6782 49.3986 72.5985 47.7441 72.7679 45.7943C72.9356 43.8626 73.3278 41.8265 73.7224 39.8299C73.7424 39.7284 73.7625 39.6268 73.7827 39.525C74.1447 37.6964 74.5132 35.8346 74.6077 34.3182L74.6077 34.3175C74.9133 29.3857 74.9385 23.7577 72.4398 18.1351C69.9206 12.4665 64.9629 7.06842 55.8271 2.28201C55.0525 1.87617 54.1041 2.02065 53.4854 2.63871C52.8668 3.25678 52.7214 4.2051 53.1265 4.9801C56.6156 11.6548 56.6552 16.7382 55.3639 20.0602C54.0678 23.3949 51.3754 25.1767 48.7813 25.3791L48.7812 25.3791C45.6922 25.6203 42.7299 24.3029 40.7792 21.7073C38.8341 19.1189 37.7881 15.0952 38.9625 9.81067C39.1434 8.99667 38.8002 8.15586 38.1015 7.70083C37.4027 7.24581 36.495 7.27207 35.8237 7.76672C26.5719 14.5841 26.433 25.9476 29.1812 33.0946L29.1814 33.095C30.372 36.1893 30.2473 38.7537 29.3864 40.5046C28.5578 42.1898 26.898 43.4353 24.2512 43.6958L24.2508 43.6958C22.8596 43.833 21.7206 43.5284 20.7993 42.9056C19.8617 42.2717 19.0183 41.2174 18.4084 39.6521C17.1724 36.48 17.0066 31.4558 18.8033 24.9209C19.052 24.0165 18.6387 23.0607 17.8094 22.6225C16.9801 22.1842 15.9576 22.3811 15.3504 23.0961C8.62027 31.021 4.55554 41.2892 4.55554 52.5018C4.55554 77.6005 24.9013 97.9463 50 97.9463C75.0987 97.9463 95.4444 77.6005 95.4444 52.5018C95.4444 46.9934 94.4638 41.7075 92.6636 36.8152Z" fill="#F4900C" stroke="#222222" stroke-width="4" stroke-linejoin="round"/>
<path d="M78.2931 64.2749C77.8308 63.4765 76.8824 63.0979 75.9973 63.3586C75.1123 63.6192 74.5204 64.4514 74.5647 65.373C74.876 71.8604 69.3529 73.8274 67.0352 72.8991L67.0348 72.8989C65.9018 72.4454 65.2927 71.9772 64.9188 71.5298C64.5462 71.0838 64.282 70.5093 64.0823 69.6226C63.8763 68.7081 63.7693 67.6205 63.6247 66.1503L63.618 66.0825C63.4741 64.6196 63.2983 62.8812 62.9365 60.8786C61.3974 52.3595 55.4397 46.5086 46.9514 43.9839C46.2298 43.7692 45.4488 43.978 44.9306 44.5241C44.4123 45.0702 44.2446 45.861 44.4967 46.5704C47.2327 54.2716 46.3591 59.1699 44.6255 62.1794C42.8532 65.2563 39.9718 66.7319 38.0665 67.1654L38.0664 67.1654C35.8761 67.6638 34.2195 67.5279 33.0602 66.649C31.8899 65.7618 30.6297 63.6655 30.3668 58.7682C30.3246 57.9808 29.8235 57.2916 29.0874 57.0086C28.3513 56.7256 27.5176 56.9016 26.9587 57.458C21.0161 63.3734 17.3333 71.5645 17.3333 80.613C17.3333 81.6349 17.3971 82.6242 17.4817 83.5756C17.5236 84.0471 17.7313 84.4884 18.068 84.8211C26.2718 92.9287 37.5476 97.9463 49.9999 97.9463C62.4522 97.9463 73.728 92.9287 81.9319 84.8211C82.2685 84.4884 82.4763 84.0471 82.5182 83.5756C82.6027 82.6242 82.6666 81.6349 82.6666 80.613C82.6666 74.6633 81.0768 69.0824 78.2931 64.2749Z" fill="#FFCC4D" stroke="#222222" stroke-width="4" stroke-linejoin="round"/>
</svg>
