<svg width="100" height="100" viewBox="0 0 100 100" fill="none" xmlns="http://www.w3.org/2000/svg">
<path d="M83.5416 11.3315C83.1748 11.3315 82.8236 11.3608 82.4895 11.4095C80.445 9.38098 77.6511 8.07925 74.5159 8.04329C72.3363 5.95659 69.3873 4.63597 66.0974 4.63597C62.5599 4.63597 59.4122 6.14896 57.1966 8.53172C55.8149 7.24076 53.9596 6.44786 51.9141 6.44786C50.5053 6.44786 49.198 6.82839 48.0742 7.48079C46.0235 4.30769 42.476 2.18774 38.3926 2.18774C34.7628 2.18774 31.5438 3.86527 29.4276 6.46102C29.262 6.44962 29.091 6.44274 28.9166 6.44274C24.9811 6.44274 21.5557 8.42168 19.4758 11.39C19.2896 11.3786 19.0998 11.3724 18.9065 11.3724C13.0384 11.3724 8.28149 16.1293 8.28149 21.9974C8.28149 27.8655 13.0384 32.6224 18.9065 32.6224C20.3357 32.6224 21.6825 32.3264 22.9054 31.8163C23.9609 32.3719 25.1684 32.7016 26.4684 32.7016C26.5014 32.7016 26.5343 32.7014 26.567 32.7009C29.1789 36.1912 33.3246 38.4772 38.0476 38.4772C42.2497 38.4772 46.016 36.6743 48.6442 33.8183C50.6946 35.5004 53.3105 36.535 56.1972 36.535C61.2362 36.535 65.4998 33.43 67.2898 29.0621C67.4188 29.0493 67.547 29.0345 67.6746 29.0178C69.5526 30.3722 71.8571 31.2092 74.3876 31.2092C77.5739 31.2092 80.42 29.9001 82.4927 27.8423C82.8266 27.891 83.1776 27.9202 83.5442 27.9202C88.1243 27.9202 91.8385 24.206 91.8385 19.6259C91.8385 15.0447 88.1207 11.3315 83.5416 11.3315Z" fill="#CCD6DD" stroke="#222222" stroke-width="4"/>
<path d="M68.4585 33.3453C68.454 33.3467 68.4495 33.3481 68.4451 33.3495L35.7358 36.7983C35.5576 36.7006 35.3424 36.5843 35.0955 36.454C34.3499 36.0604 33.3078 35.5344 32.123 35.0068C29.8519 33.9954 26.7062 32.8136 24.1122 32.8136C13.3095 32.8136 4.55554 41.5672 4.55554 52.3677C4.55554 53.0209 4.58763 53.6654 4.64905 54.301C5.66977 78.4935 25.5524 97.8122 50 97.8122C75.0987 97.8122 95.4444 77.4664 95.4444 52.3677C95.4444 52.1923 95.4292 52.0421 95.4212 51.9654C95.4203 51.9566 95.4195 51.9492 95.4189 51.9427C95.4197 51.9314 95.4205 51.9191 95.4215 51.9057C95.4231 51.8826 95.425 51.8561 95.4272 51.8247C95.4344 51.7198 95.4444 51.5653 95.4444 51.3941C95.4444 40.5937 86.6907 31.84 75.8903 31.84C74.3626 31.84 72.3867 32.2713 70.9406 32.6408C70.1858 32.8336 69.5147 33.0259 69.0324 33.1699C68.7907 33.242 68.5951 33.3024 68.4585 33.3453Z" fill="#FFCB4C" stroke="#222222" stroke-width="4"/>
<path d="M80.9886 38.9536C78.5839 38.33 78.4101 39.94 75.3613 39.5822C72.3764 39.2321 76.4576 37.6937 74.863 36.7915C74.3263 36.4874 73.5571 36.4236 72.609 36.5411C69.9205 36.8708 29.2821 37.9313 27.7666 38.6622C26.4199 39.3113 25.6225 40.0627 24.3984 38.9203C22.8574 37.4841 20.652 38.3121 20.0131 38.79C19.1902 39.4084 19.019 40.6351 20.6111 42.0534C22.1981 43.1268 24.8865 44.2487 29.4661 45.0153C29.9695 45.0997 30.3989 45.1329 30.8001 45.1482C33.9358 45.253 34.3702 40.8804 38.799 40.7629C41.7021 40.6862 67.3011 43.4973 69.4094 43.2111C69.6675 43.1753 69.9384 43.1498 70.2502 43.1498C74.2445 43.1498 75.1722 46.8553 79.4221 43.9573C81.2238 42.493 84.0502 39.7458 80.9886 38.9536Z" fill="#F19020"/>
<path d="M19.1749 27.1061C23.067 31.0084 25.8296 35.1433 27.7667 38.6649C29.2131 41.2945 30.2098 43.5945 30.8001 45.1509C33.9358 45.2556 34.3703 43.4386 38.799 43.3211C41.7021 43.2444 43.3556 45.2863 45.5023 46.4619C49.3407 48.5625 52.0675 44.5963 55.0064 44.5963C57.1786 44.5963 60.6772 47.6809 63.1228 46.5487C66.6674 44.9055 67.3011 43.5051 69.4095 43.2163C70.2324 41.1949 71.3032 38.8821 72.609 36.5489C74.5001 33.1653 76.8973 29.7383 79.8694 27.1112H19.1749V27.1061Z" fill="#F36C24"/>
<path d="M78.8931 27.9239C82.1667 24.6962 20.0156 27.9647 21.7994 29.9376C24.3243 32.7334 27.4216 37.9953 27.4216 37.9953C27.4216 37.9953 39.5784 44.1414 48.7631 36.3955C55.152 40.2289 64.0964 38.8719 68.0882 32.2836C68.0882 32.2836 71.1983 33.4413 74.3518 33.6406C74.3518 33.6406 76.7873 29.999 78.8931 27.9239Z" fill="#CE5C1F"/>
<path d="M50 89.6481C56.1141 89.6481 61.0707 83.9845 61.0707 76.9981C61.0707 70.0117 56.1141 64.3481 50 64.3481C43.8858 64.3481 38.9293 70.0117 38.9293 76.9981C38.9293 83.9845 43.8858 89.6481 50 89.6481Z" fill="#65471B"/>
<path d="M39.7778 56.4719C39.7778 60.2362 37.488 63.2876 34.6667 63.2876C31.8428 63.2876 29.5555 60.2362 29.5555 56.4719C29.5555 52.7076 31.8428 49.6562 34.6667 49.6562C37.488 49.6562 39.7778 52.7076 39.7778 56.4719ZM70.4444 56.4694C70.4444 60.2337 68.1572 63.285 65.3333 63.285C62.5094 63.285 60.2222 60.2337 60.2222 56.4694C60.2222 52.7076 62.512 49.6537 65.3333 49.6537C68.1572 49.6562 70.4444 52.7076 70.4444 56.4694Z" fill="#65471B"/>
<path d="M83.5416 13.3315C82.9283 13.3315 82.3482 13.4465 81.7885 13.6101C80.0303 11.4506 77.3853 10.0425 74.3825 10.0425C74.1602 10.0425 73.9506 10.0936 73.7308 10.109C71.855 7.99552 69.1462 6.63597 66.0974 6.63597C62.2513 6.63597 58.9418 8.78008 57.1887 11.9157C56.3045 9.87641 54.2779 8.44786 51.9141 8.44786C50.0792 8.44786 48.4666 9.32186 47.4137 10.6584C46.1155 6.90174 42.5888 4.18774 38.3926 4.18774C35.0116 4.18774 32.0548 5.94852 30.3477 8.59097C29.8775 8.51686 29.4073 8.44274 28.9166 8.44274C25.257 8.44274 22.1163 10.5179 20.5012 13.5334C19.9824 13.4363 19.4534 13.3724 18.9065 13.3724C14.1429 13.3724 10.2815 17.2339 10.2815 21.9974C10.2815 26.761 14.1429 30.6224 18.9065 30.6224C20.4092 30.6224 21.8071 30.2161 23.0312 29.5363C23.9921 30.257 25.1727 30.7016 26.4684 30.7016C26.8389 30.7016 27.1967 30.6607 27.5468 30.5917C29.7318 34.1159 33.5958 36.4772 38.0476 36.4772C42.4151 36.4772 46.2407 34.2155 48.4564 30.8115C50.2964 33.0655 53.0615 34.535 56.1972 34.535C60.8355 34.535 64.6995 31.3712 65.8469 27.0957C65.9338 27.0983 66.013 27.1213 66.0999 27.1213C66.8232 27.1213 67.5285 27.0421 68.2108 26.899C69.8822 28.3199 72.0212 29.2092 74.3876 29.2092C77.3878 29.2092 80.0354 27.8011 81.7911 25.6416C82.3507 25.8052 82.9308 25.9202 83.5442 25.9202C87.0197 25.9202 89.8385 23.1014 89.8385 19.6259C89.8385 16.1503 87.0172 13.3315 83.5416 13.3315Z" fill="#CCD6DD"/>
<path d="M75.0317 23.9703C78.0252 23.9703 80.452 21.5435 80.452 18.55C80.452 15.5564 78.0252 13.1296 75.0317 13.1296C72.0381 13.1296 69.6113 15.5564 69.6113 18.55C69.6113 21.5435 72.0381 23.9703 75.0317 23.9703Z" fill="#E1E8ED"/>
<path d="M54.7942 18.8976C54.7942 15.8488 52.3229 13.3751 49.2742 13.3751C48.3337 13.3751 47.4597 13.6332 46.6854 14.0472C46.0439 12.5113 44.5285 11.4303 42.7575 11.4303C41.3085 11.4303 40.0307 12.1586 39.2615 13.2652C37.5493 11.6731 35.2723 10.6764 32.7499 10.6764C28.2649 10.6764 24.5313 13.7686 23.486 17.9291C22.5533 16.9912 21.2627 16.4085 19.8342 16.4085C16.9949 16.4085 14.6924 18.7111 14.6924 21.5503C14.6924 24.3895 16.9949 26.6921 19.8342 26.6921C21.6307 26.6921 23.2049 25.7695 24.1249 24.3742C25.4462 27.1367 28.0324 29.1607 31.1502 29.6872C32.1468 31.3994 33.9792 32.5622 36.1028 32.5622C38.8475 32.5622 41.1347 30.6353 41.7072 28.0644C42.5352 28.5244 43.473 28.8106 44.4851 28.8106C47.2195 28.8106 49.4991 26.8965 50.0817 24.3384C52.7446 23.9423 54.7942 21.6704 54.7942 18.8976Z" fill="#E1E8ED"/>
</svg>
