<svg width="100" height="101" viewBox="0 0 100 101" fill="none" xmlns="http://www.w3.org/2000/svg">
<path d="M2.5 97V99H4.5L26.7121 99L48.5 99H50.5V97C50.5 72.1472 70.6472 52 95.5 52H97.5V50L97.5 35.7766L97.5 14.7718L97.5 12.7766L97.5 12.7742L97.5 10.7742L97.5 5V2.99766L95.4977 3C44.1068 3.06009 2.5 45.1394 2.5 97Z" fill="#8767AC" stroke="#222222" stroke-width="4"/>
<path d="M4.5 97H12.1983C12.1983 50.5157 49.485 12.8304 95.5 12.7742V5C45.231 5.05878 4.5 46.2248 4.5 97Z" fill="#EB2027"/>
<path d="M11.3788 97.0001H19.0455C19.0455 54.7516 53.2643 20.4995 95.5 20.4433V12.7766C49.0323 12.8328 11.3788 50.5171 11.3788 97.0001Z" fill="#F19020"/>
<path d="M19.0454 97H26.7121C26.7121 58.9861 57.4989 28.1661 95.5 28.1099V20.4432C53.2643 20.4995 19.0454 54.7516 19.0454 97Z" fill="#FFCB4C"/>
<path d="M26.7122 97H34.3788C34.3788 63.2232 61.736 35.8328 95.5 35.7765V28.1099C57.4989 28.1661 26.7122 58.9861 26.7122 97Z" fill="#5C903F"/>
<path d="M34.3788 97.0001H42.0455C42.0455 67.4578 65.9706 43.5021 95.5 43.4458V35.7766C61.736 35.8328 34.3788 63.2233 34.3788 97.0001Z" fill="#226798"/>
<path d="M41.5 97C41.5 67.1766 65.6766 43 95.5 43V50C69.5426 50 48.5 71.0426 48.5 97H41.5Z" fill="#8767AC"/>
<path d="M11.3788 97.0001H19.0455C19.0455 54.7516 53.2643 20.4995 95.5 20.4433V12.7766C49.0323 12.8328 11.3788 50.5171 11.3788 97.0001Z" fill="#F19020"/>
<path d="M19.0454 97H26.7121C26.7121 58.9861 57.4989 28.1661 95.5 28.1099V20.4432C53.2643 20.4995 19.0454 54.7516 19.0454 97Z" fill="#FFCB4C"/>
<path d="M26.7122 97H34.3788C34.3788 63.2232 61.736 35.8328 95.5 35.7765V28.1099C57.4989 28.1661 26.7122 58.9861 26.7122 97Z" fill="#5C903F"/>
<path d="M34.3788 97.0001H42.0455C42.0455 67.4578 65.9706 43.5021 95.5 43.4458V35.7766C61.736 35.8328 34.3788 63.2233 34.3788 97.0001Z" fill="#226798"/>
<path d="M41.5 97C41.5 67.1766 65.6766 43 95.5 43V50C69.5426 50 48.5 71.0426 48.5 97H41.5Z" fill="#8767AC"/>
</svg>
